<?xml version="1.0" encoding="UTF-8"?>
<!DOCTYPE svg PUBLIC "-//W3C//DTD SVG 1.1//EN" "http://www.w3.org/Graphics/SVG/1.1/DTD/svg11.dtd">
<svg xmlns="http://www.w3.org/2000/svg" version="1.1" width="1476px" height="271px" style="shape-rendering:geometricPrecision; text-rendering:geometricPrecision; image-rendering:optimizeQuality; fill-rule:evenodd; clip-rule:evenodd" xmlns:xlink="http://www.w3.org/1999/xlink">
<g><path style="opacity:1" fill="#f6f9fc" d="M -0.5,-0.5 C 20.1667,-0.5 40.8333,-0.5 61.5,-0.5C 40.9428,0.692835 20.2761,2.3595 -0.5,4.5C -0.5,2.83333 -0.5,1.16667 -0.5,-0.5 Z"/></g>
<g><path style="opacity:1" fill="#0c5ed7" d="M 61.5,-0.5 C 80.5,-0.5 99.5,-0.5 118.5,-0.5C 138.656,1.36478 158.322,5.86478 177.5,13C 204.511,25.0046 220.678,45.5046 226,74.5C 231.069,103.085 226.735,130.085 213,155.5C 200.375,173.742 183.542,186.576 162.5,194C 148.305,199.274 133.639,202.108 118.5,202.5C 105.167,202.5 91.8333,202.5 78.5,202.5C 78.5,223.167 78.5,243.833 78.5,264.5C 52.1667,264.5 25.8333,264.5 -0.5,264.5C -0.5,177.833 -0.5,91.1667 -0.5,4.5C 20.2761,2.3595 40.9428,0.692835 61.5,-0.5 Z"/></g>
<g><path style="opacity:1" fill="#fefefe" d="M 118.5,-0.5 C 439.5,-0.5 760.5,-0.5 1081.5,-0.5C 1060.94,0.692808 1040.28,2.35948 1019.5,4.5C 1019.5,91.1667 1019.5,177.833 1019.5,264.5C 1045.99,265.498 1072.66,265.831 1099.5,265.5C 1099.5,244.833 1099.5,224.167 1099.5,203.5C 1110.68,203.828 1121.68,203.495 1132.5,202.5C 1163.69,202.826 1191.69,193.659 1216.5,175C 1241.41,149.599 1251.58,119.099 1247,83.5C 1243.46,48.2113 1225.29,24.0446 1192.5,11C 1173.88,4.56861 1154.88,0.735276 1135.5,-0.5C 1210.5,-0.5 1285.5,-0.5 1360.5,-0.5C 1337.07,0.922806 1315.73,8.42281 1296.5,22C 1274.87,41.8987 1267.04,66.3987 1273,95.5C 1280.38,121.22 1296.55,139.053 1321.5,149C 1337.95,155.755 1354.62,162.089 1371.5,168C 1381.1,171.284 1388.6,177.117 1394,185.5C 1397.03,196.259 1394.2,205.092 1385.5,212C 1380.34,214.277 1375,215.943 1369.5,217C 1332.99,219.271 1298.16,212.771 1265,197.5C 1265.39,204.819 1266.06,212.153 1267,219.5C 1268.85,232.28 1271.01,244.946 1273.5,257.5C 1295.14,264.252 1317.14,268.585 1339.5,270.5C 892.833,270.5 446.167,270.5 -0.5,270.5C -0.5,268.833 -0.5,267.167 -0.5,265.5C 26.1667,265.5 52.8333,265.5 79.5,265.5C 79.5,244.833 79.5,224.167 79.5,203.5C 92.6774,203.829 105.677,203.495 118.5,202.5C 133.639,202.108 148.305,199.274 162.5,194C 183.542,186.576 200.375,173.742 213,155.5C 226.735,130.085 231.069,103.085 226,74.5C 220.678,45.5046 204.511,25.0046 177.5,13C 158.322,5.86478 138.656,1.36478 118.5,-0.5 Z"/></g>
<g><path style="opacity:1" fill="#0c5ed7" d="M 1081.5,-0.5 C 1099.5,-0.5 1117.5,-0.5 1135.5,-0.5C 1154.88,0.735276 1173.88,4.56861 1192.5,11C 1225.29,24.0446 1243.46,48.2113 1247,83.5C 1251.58,119.099 1241.41,149.599 1216.5,175C 1191.69,193.659 1163.69,202.826 1132.5,202.5C 1121.17,202.5 1109.83,202.5 1098.5,202.5C 1098.5,223.167 1098.5,243.833 1098.5,264.5C 1072.17,264.5 1045.83,264.5 1019.5,264.5C 1019.5,177.833 1019.5,91.1667 1019.5,4.5C 1040.28,2.35948 1060.94,0.692808 1081.5,-0.5 Z"/></g>
<g><path style="opacity:1" fill="#0d5ed7" d="M 1360.5,-0.5 C 1373.83,-0.5 1387.17,-0.5 1400.5,-0.5C 1417.83,0.393977 1434.99,3.06064 1452,7.5C 1454.77,26.1616 1456.6,44.8283 1457.5,63.5C 1431.35,53.9707 1404.35,49.804 1376.5,51C 1366.16,51.7477 1358,56.2477 1352,64.5C 1349.69,74.2429 1352.52,82.0762 1360.5,88C 1362.5,89.3333 1364.5,90.6667 1366.5,92C 1386.01,100.059 1405.68,107.725 1425.5,115C 1442.58,121.76 1456.42,132.593 1467,147.5C 1470.76,154.618 1473.59,161.951 1475.5,169.5C 1475.5,178.5 1475.5,187.5 1475.5,196.5C 1469.51,230.337 1449.84,252.17 1416.5,262C 1401.58,265.952 1386.58,268.785 1371.5,270.5C 1360.83,270.5 1350.17,270.5 1339.5,270.5C 1317.14,268.585 1295.14,264.252 1273.5,257.5C 1271.01,244.946 1268.85,232.28 1267,219.5C 1266.06,212.153 1265.39,204.819 1265,197.5C 1298.16,212.771 1332.99,219.271 1369.5,217C 1375,215.943 1380.34,214.277 1385.5,212C 1394.2,205.092 1397.03,196.259 1394,185.5C 1388.6,177.117 1381.1,171.284 1371.5,168C 1354.62,162.089 1337.95,155.755 1321.5,149C 1296.55,139.053 1280.38,121.22 1273,95.5C 1267.04,66.3987 1274.87,41.8987 1296.5,22C 1315.73,8.42281 1337.07,0.922806 1360.5,-0.5 Z"/></g>
<g><path style="opacity:1" fill="#fdfdfe" d="M 1400.5,-0.5 C 1425.5,-0.5 1450.5,-0.5 1475.5,-0.5C 1475.5,56.1667 1475.5,112.833 1475.5,169.5C 1473.59,161.951 1470.76,154.618 1467,147.5C 1456.42,132.593 1442.58,121.76 1425.5,115C 1405.68,107.725 1386.01,100.059 1366.5,92C 1364.5,90.6667 1362.5,89.3333 1360.5,88C 1352.52,82.0762 1349.69,74.2429 1352,64.5C 1358,56.2477 1366.16,51.7477 1376.5,51C 1404.35,49.804 1431.35,53.9707 1457.5,63.5C 1456.6,44.8283 1454.77,26.1616 1452,7.5C 1434.99,3.06064 1417.83,0.393977 1400.5,-0.5 Z"/></g>
<g><path style="opacity:1" fill="#7da7e7" d="M 338.5,5.5 C 312.167,5.5 285.833,5.5 259.5,5.5C 259.5,91.8333 259.5,178.167 259.5,264.5C 285.833,264.5 312.167,264.5 338.5,264.5C 312.005,265.498 285.339,265.831 258.5,265.5C 258.5,178.5 258.5,91.5 258.5,4.5C 285.339,4.16881 312.005,4.50214 338.5,5.5 Z"/></g>
<g><path style="opacity:1" fill="#0a5ed7" d="M 338.5,5.5 C 338.5,39.5 338.5,73.5 338.5,107.5C 365.995,108.498 393.662,108.831 421.5,108.5C 421.5,74.1667 421.5,39.8333 421.5,5.5C 447.833,5.5 474.167,5.5 500.5,5.5C 500.5,91.8333 500.5,178.167 500.5,264.5C 474.167,264.5 447.833,264.5 421.5,264.5C 421.5,230.5 421.5,196.5 421.5,162.5C 393.662,162.169 365.995,162.502 338.5,163.5C 338.5,197.167 338.5,230.833 338.5,264.5C 312.167,264.5 285.833,264.5 259.5,264.5C 259.5,178.167 259.5,91.8333 259.5,5.5C 285.833,5.5 312.167,5.5 338.5,5.5 Z"/></g>
<g><path style="opacity:1" fill="#0a5ed7" d="M 638.5,5.5 C 638.5,91.8333 638.5,178.167 638.5,264.5C 612.167,264.5 585.833,264.5 559.5,264.5C 559.5,178.167 559.5,91.8333 559.5,5.5C 585.833,5.5 612.167,5.5 638.5,5.5 Z"/></g>
<g><path style="opacity:1" fill="#0b5ed7" d="M 776.5,5.5 C 776.5,74.5 776.5,143.5 776.5,212.5C 801.836,212.333 827.169,212.5 852.5,213C 848.113,230.048 844.113,247.215 840.5,264.5C 792.833,264.5 745.167,264.5 697.5,264.5C 697.5,178.167 697.5,91.8333 697.5,5.5C 723.833,5.5 750.167,5.5 776.5,5.5 Z"/></g>
<g><path style="opacity:1" fill="#0a5ed7" d="M 880.5,5.5 C 906.833,5.5 933.167,5.5 959.5,5.5C 959.5,91.8333 959.5,178.167 959.5,264.5C 933.167,264.5 906.833,264.5 880.5,264.5C 880.5,178.167 880.5,91.8333 880.5,5.5 Z"/></g>
<g><path style="opacity:1" fill="#78a5e7" d="M 500.5,5.5 C 474.167,5.5 447.833,5.5 421.5,5.5C 421.5,39.8333 421.5,74.1667 421.5,108.5C 393.662,108.831 365.995,108.498 338.5,107.5C 365.833,107.5 393.167,107.5 420.5,107.5C 420.5,73.1667 420.5,38.8333 420.5,4.5C 447.339,4.16881 474.005,4.50214 500.5,5.5 Z"/></g>
<g><path style="opacity:1" fill="#548ce1" d="M 638.5,5.5 C 612.167,5.5 585.833,5.5 559.5,5.5C 559.5,91.8333 559.5,178.167 559.5,264.5C 585.833,264.5 612.167,264.5 638.5,264.5C 612.005,265.498 585.339,265.831 558.5,265.5C 558.5,178.5 558.5,91.5 558.5,4.5C 585.339,4.16881 612.005,4.50214 638.5,5.5 Z"/></g>
<g><path style="opacity:1" fill="#598fe1" d="M 776.5,5.5 C 750.167,5.5 723.833,5.5 697.5,5.5C 697.5,91.8333 697.5,178.167 697.5,264.5C 745.167,264.5 792.833,264.5 840.5,264.5C 792.67,265.499 744.67,265.832 696.5,265.5C 696.5,178.5 696.5,91.5 696.5,4.5C 723.339,4.16881 750.005,4.50214 776.5,5.5 Z"/></g>
<g><path style="opacity:1" fill="#7da7e9" d="M 880.5,5.5 C 906.995,4.50214 933.661,4.16881 960.5,4.5C 960.5,91.5 960.5,178.5 960.5,265.5C 933.661,265.831 906.995,265.498 880.5,264.5C 906.833,264.5 933.167,264.5 959.5,264.5C 959.5,178.167 959.5,91.8333 959.5,5.5C 933.167,5.5 906.833,5.5 880.5,5.5 Z"/></g>
<g><path style="opacity:1" fill="#fefefe" d="M 83.5,48.5 C 101.544,46.889 118.21,50.7223 133.5,60C 142.796,68.4263 147.963,78.9263 149,91.5C 150.937,109.084 146.937,125.084 137,139.5C 126.683,149.778 114.183,155.111 99.5,155.5C 92.8333,155.5 86.1667,155.5 79.5,155.5C 79.5,120.167 79.5,84.8333 79.5,49.5C 81.099,49.7678 82.4324,49.4345 83.5,48.5 Z"/></g>
<g><path style="opacity:1" fill="#fefefe" d="M 1099.5,48.5 C 1157.9,45.6754 1179.4,72.3421 1164,128.5C 1154.53,146 1139.7,155 1119.5,155.5C 1112.83,155.5 1106.17,155.5 1099.5,155.5C 1099.5,119.833 1099.5,84.1667 1099.5,48.5 Z"/></g>
<g><path style="opacity:1" fill="#85adea" d="M 83.5,48.5 C 82.4324,49.4345 81.099,49.7678 79.5,49.5C 79.5,84.8333 79.5,120.167 79.5,155.5C 86.1667,155.5 92.8333,155.5 99.5,155.5C 92.6866,156.491 85.6866,156.825 78.5,156.5C 78.5,120.5 78.5,84.5 78.5,48.5C 80.1667,48.5 81.8333,48.5 83.5,48.5 Z"/></g>
<g><path style="opacity:1" fill="#84aceb" d="M 1099.5,48.5 C 1099.5,84.1667 1099.5,119.833 1099.5,155.5C 1106.17,155.5 1112.83,155.5 1119.5,155.5C 1112.69,156.491 1105.69,156.825 1098.5,156.5C 1098.17,120.329 1098.5,84.3295 1099.5,48.5 Z"/></g>
<g><path style="opacity:1" fill="#94b8ec" d="M 338.5,163.5 C 365.995,162.502 393.662,162.169 421.5,162.5C 421.5,196.5 421.5,230.5 421.5,264.5C 447.833,264.5 474.167,264.5 500.5,264.5C 474.005,265.498 447.339,265.831 420.5,265.5C 420.5,231.5 420.5,197.5 420.5,163.5C 393.167,163.5 365.833,163.5 338.5,163.5 Z"/></g>
<g><path style="opacity:1" fill="#fbfcfe" d="M 1475.5,196.5 C 1475.5,221.167 1475.5,245.833 1475.5,270.5C 1440.83,270.5 1406.17,270.5 1371.5,270.5C 1386.58,268.785 1401.58,265.952 1416.5,262C 1449.84,252.17 1469.51,230.337 1475.5,196.5 Z"/></g>
<g><path style="opacity:1" fill="#86afeb" d="M 118.5,202.5 C 105.677,203.495 92.6774,203.829 79.5,203.5C 79.5,224.167 79.5,244.833 79.5,265.5C 52.8333,265.5 26.1667,265.5 -0.5,265.5C -0.5,265.167 -0.5,264.833 -0.5,264.5C 25.8333,264.5 52.1667,264.5 78.5,264.5C 78.5,243.833 78.5,223.167 78.5,202.5C 91.8333,202.5 105.167,202.5 118.5,202.5 Z"/></g>
<g><path style="opacity:1" fill="#85aeeb" d="M 1132.5,202.5 C 1121.68,203.495 1110.68,203.828 1099.5,203.5C 1099.5,224.167 1099.5,244.833 1099.5,265.5C 1072.66,265.831 1045.99,265.498 1019.5,264.5C 1045.83,264.5 1072.17,264.5 1098.5,264.5C 1098.5,243.833 1098.5,223.167 1098.5,202.5C 1109.83,202.5 1121.17,202.5 1132.5,202.5 Z"/></g>
</svg>
